<svg width="44" height="44" viewBox="0 0 44 44" fill="none" xmlns="http://www.w3.org/2000/svg">
<rect width="44" height="44" rx="22" fill="#373737"/>
<path d="M20.2467 11.1332L20.242 14.3681C20.7783 14.358 21.3183 14.3479 21.846 14.3486L21.8499 11.135L23.8598 11.1376L23.8552 14.4379C26.4485 14.6684 28.5013 15.4691 28.7277 17.8488C28.8958 19.5904 28.1664 20.6352 27.001 21.228C28.918 21.6915 30.1178 22.8326 29.8775 25.3864C29.5809 28.5573 27.2149 29.4054 23.8369 29.595L23.8313 32.9277L21.8226 32.9258L21.8272 29.6376C21.3066 29.6374 20.7734 29.6321 20.223 29.6199L20.2182 32.9232L18.2113 32.9208L18.2143 29.5817C17.745 29.578 17.2664 29.5683 16.78 29.5671L14.1645 29.5648L14.5664 27.1651C14.5664 27.1651 16.0525 27.1899 16.0269 27.1671C16.5954 27.1669 16.7466 26.7589 16.7827 26.5028L16.7903 21.2347L17.0026 21.2344C16.9196 21.223 16.846 21.2211 16.7899 21.2208L16.7939 17.4598C16.7179 17.0519 16.4533 16.5792 15.6395 16.5779C15.6642 16.5506 14.1805 16.5775 14.1805 16.5775L14.1825 14.431L16.9546 14.4357L16.9541 14.4459C17.3706 14.4462 17.7981 14.4389 18.2331 14.4306L18.2377 11.1303L20.2467 11.1332ZM20.2724 27.1899C21.5927 27.1907 25.6405 27.461 25.8947 25.21L25.9082 24.9843C25.91 22.3826 21.6405 22.7684 20.2782 22.7664L20.2724 27.1899ZM20.2801 20.7416C21.415 20.7428 24.9773 21.0121 24.9811 18.7427C24.9844 16.3752 21.4204 16.731 20.2853 16.7298L20.2801 20.7416Z" fill="#F0D85A"/>
</svg>
