<svg width="23" height="23" viewBox="0 0 23 23" fill="none" xmlns="http://www.w3.org/2000/svg">
<g opacity="0.6">
<path d="M12.0913 1.41699C13.0402 0.713297 14.3813 0.680084 16.2827 1.2334C18.8118 1.96784 20.9205 4.07628 21.6548 6.60547C22.1734 8.37845 22.1765 9.67712 21.5942 10.6064L21.4702 10.7871C21.0443 11.3567 20.4456 11.6684 19.8325 11.8379C19.2207 12.0069 18.585 12.0371 18.0708 12.0371H14.7505C13.4772 12.0371 12.4927 11.6761 11.8296 10.9336C11.1694 10.1943 10.8501 9.10194 10.8501 7.6875V4.81738C10.8501 4.30302 10.8805 3.66662 11.0483 3.05469C11.2165 2.44184 11.5258 1.84304 12.0903 1.41699H12.0913ZM14.0308 2.64746C13.6356 2.64746 13.3536 2.72505 13.1812 2.85645L13.1802 2.85742C13.0217 2.97523 12.8896 3.18259 12.7983 3.50977C12.7072 3.83647 12.6606 4.26932 12.6606 4.81738V7.69727C12.6607 8.80485 12.8745 9.42997 13.2212 9.78223C13.566 10.1325 14.0757 10.247 14.7603 10.2471H18.0806C18.6235 10.2471 19.0536 10.2005 19.3804 10.1094C19.7075 10.0181 19.9183 9.88569 20.0415 9.72559C20.1862 9.53491 20.2655 9.23077 20.2534 8.79004C20.2414 8.35174 20.1398 7.79816 19.9468 7.12988L19.8276 6.77246C19.1719 5.00351 17.5984 3.50228 15.7983 2.98145L15.7964 2.98047C15.0637 2.75273 14.4795 2.6475 14.0308 2.64746Z" fill="black" stroke="black" stroke-width="0.3"/>
<path d="M8.83203 2.26001C9.32219 2.16458 9.78881 2.47596 9.89648 2.95435L9.89746 2.95825C9.99313 3.44857 9.68167 3.91601 9.20312 4.02368L9.2002 4.02466C4.89018 4.90847 2.06118 9.03174 2.77832 13.4231C3.328 16.8193 6.08816 19.5795 9.48438 20.1292C13.8955 20.8364 18.0087 17.9979 18.8828 13.6682C18.9791 13.1757 19.4593 12.8644 19.9395 12.9602L20.0293 12.9827C20.4399 13.1075 20.7015 13.508 20.6611 13.927L20.6475 14.0168C19.683 18.758 15.5404 22.0374 10.8203 22.0374C10.2828 22.0374 9.73439 21.997 9.18555 21.9055V21.9045C5.16206 21.2548 1.86415 18.0727 1.05273 14.0979L0.982422 13.7112C0.119791 8.37299 3.56026 3.33642 8.83008 2.26001H8.83203Z" fill="black" stroke="black" stroke-width="0.3"/>
</g>
</svg>
