<svg width="49" height="48" viewBox="0 0 49 48" fill="none" xmlns="http://www.w3.org/2000/svg">
<path d="M47.78 29.8062C44.5745 42.6634 31.5515 50.4874 18.6927 47.2819C5.83999 44.0765 -1.98476 31.0534 1.22149 18.1969C4.42549 5.3382 17.4477 -2.4873 30.3027 0.718197C43.1607 3.9237 50.9847 16.9482 47.7792 29.8062H47.78Z" fill="#070707"/>
<g clip-path="url(#clip0_284_459)">
<path fill-rule="evenodd" clip-rule="evenodd" d="M21.5285 13L18.8656 23.0588L16.7602 23.8971L16 26.761L18.1423 26.0252L16.7233 31.9627L32.0648 32L33 28.1907H23.6707L24.8778 23.6176L27.4024 22.5326L28.1257 19.7385L25.6748 20.5767L27.6098 13.1025L21.5285 13Z" fill="#DDDDDD"/>
</g>
<defs>
<clipPath id="clip0_284_459">
<rect width="17" height="19" fill="white" transform="translate(16 13)"/>
</clipPath>
</defs>
</svg>
