<svg width="25" height="25" viewBox="0 0 25 25" fill="none" xmlns="http://www.w3.org/2000/svg">
<g opacity="0.6">
<path d="M12.5 8.51855C13.5559 8.51855 14.5688 8.93794 15.3154 9.68457C16.0621 10.4312 16.4814 11.4441 16.4814 12.5C16.4814 13.5559 16.0621 14.5688 15.3154 15.3154C14.5688 16.0621 13.5559 16.4814 12.5 16.4814C11.4441 16.4814 10.4312 16.0621 9.68457 15.3154C8.93794 14.5688 8.51855 13.5559 8.51855 12.5C8.51855 11.4441 8.93794 10.4312 9.68457 9.68457C10.4312 8.93794 11.4441 8.51855 12.5 8.51855ZM12.5 10.2314C11.8983 10.2314 11.321 10.47 10.8955 10.8955C10.47 11.321 10.2314 11.8983 10.2314 12.5C10.2314 13.1017 10.47 13.679 10.8955 14.1045C11.321 14.53 11.8983 14.7686 12.5 14.7686C13.1017 14.7686 13.679 14.53 14.1045 14.1045C14.53 13.679 14.7686 13.1017 14.7686 12.5C14.7686 11.8983 14.53 11.321 14.1045 10.8955C13.679 10.47 13.1017 10.2314 12.5 10.2314Z" fill="black" stroke="black" stroke-width="0.15"/>
<mask id="path-2-outside-1_2008_380" maskUnits="userSpaceOnUse" x="0.897461" y="0.302002" width="23" height="24" fill="black">
<rect fill="white" x="0.897461" y="0.302002" width="23" height="24"/>
<path fill-rule="evenodd" clip-rule="evenodd" d="M12.474 1.302C12.0105 1.302 11.624 1.302 11.3073 1.32284C10.9837 1.33631 10.6644 1.40319 10.3625 1.52075C10.0149 1.6646 9.69898 1.87552 9.43285 2.14147C9.16672 2.40742 8.95559 2.72319 8.81151 3.07075C8.66047 3.43534 8.61984 3.82075 8.60318 4.2395C8.60151 4.39265 8.56097 4.54286 8.48535 4.67605C8.40974 4.80924 8.30153 4.92104 8.17088 5.00096C8.03639 5.0744 7.88543 5.11245 7.73219 5.11154C7.57895 5.11063 7.42846 5.07079 7.29484 4.99575C6.92401 4.79992 6.56984 4.64263 6.17818 4.59054C5.8052 4.54148 5.42622 4.56637 5.06286 4.66378C4.6995 4.76118 4.35889 4.92921 4.06047 5.15825C3.80815 5.36125 3.591 5.60444 3.41776 5.87804C3.24068 6.14263 3.04693 6.477 2.81568 6.87804L2.78963 6.92388C2.55734 7.32492 2.36463 7.65929 2.22505 7.94471C2.07922 8.24263 1.96463 8.53638 1.92297 8.86138C1.82359 9.61449 2.02742 10.3762 2.48963 10.9791C2.73026 11.2926 3.0438 11.5208 3.39797 11.7437C3.53001 11.8217 3.64002 11.9321 3.71765 12.0644C3.79528 12.1967 3.83797 12.3466 3.84172 12.4999C3.83797 12.6533 3.79528 12.8031 3.71765 12.9354C3.64002 13.0677 3.53001 13.1781 3.39797 13.2562C3.0438 13.4791 2.7313 13.7072 2.48963 14.0208C2.26059 14.3192 2.09257 14.6598 1.99516 15.0231C1.89775 15.3865 1.87287 15.7655 1.92193 16.1385C1.96463 16.4635 2.07818 16.7572 2.22401 17.0551C2.36463 17.3405 2.55734 17.6749 2.78963 18.076L2.81568 18.1218C3.04693 18.5228 3.24068 18.8572 3.41776 19.1218C3.60213 19.3958 3.80005 19.6426 4.06047 19.8405C4.35881 20.0698 4.69939 20.238 5.06275 20.3356C5.42611 20.4332 5.80513 20.4582 6.17818 20.4093C6.56984 20.3572 6.92401 20.201 7.29484 20.0041C7.4283 19.9291 7.57861 19.8893 7.73167 19.8884C7.88473 19.8875 8.0355 19.9255 8.16984 19.9989C8.30122 20.0782 8.4101 20.1898 8.48614 20.3231C8.56217 20.4564 8.60282 20.6069 8.60422 20.7603C8.61984 21.1791 8.66047 21.5645 8.81255 21.9291C8.95639 22.2767 9.16731 22.5927 9.43327 22.8588C9.69922 23.1249 10.015 23.3361 10.3625 23.4801C10.6646 23.6051 10.9771 23.6541 11.3073 23.676C11.624 23.6978 12.0105 23.6978 12.474 23.6978H12.5261C12.9896 23.6978 13.3761 23.6978 13.6928 23.677C14.024 23.6541 14.3355 23.6051 14.6376 23.4791C14.9852 23.3352 15.3011 23.1243 15.5673 22.8584C15.8334 22.5924 16.0445 22.2766 16.1886 21.9291C16.3396 21.5645 16.3803 21.1791 16.3969 20.7603C16.3984 20.607 16.4389 20.4566 16.5145 20.3232C16.5901 20.1898 16.6984 20.0779 16.8292 19.9978C16.9638 19.9246 17.1148 19.8867 17.268 19.8878C17.4213 19.8889 17.5717 19.9289 17.7053 20.0041C18.0761 20.1999 18.4303 20.3572 18.8219 20.4083C19.575 20.5076 20.3368 20.3038 20.9396 19.8416C21.2 19.6416 21.398 19.3958 21.5823 19.1218C21.7594 18.8572 21.9532 18.5228 22.1844 18.1218L22.2105 18.076C22.4428 17.6749 22.6355 17.3405 22.775 17.0551C22.9209 16.7572 23.0355 16.4624 23.0771 16.1385C23.1765 15.3853 22.9727 14.6236 22.5105 14.0208C22.2698 13.7072 21.9563 13.4791 21.6021 13.2562C21.4701 13.1781 21.3601 13.0677 21.2825 12.9354C21.2048 12.8031 21.1621 12.6533 21.1584 12.4999C21.1584 12.2103 21.3167 11.9228 21.6021 11.7437C21.9563 11.5208 22.2688 11.2926 22.5105 10.9791C22.7395 10.6807 22.9075 10.3401 23.0049 9.9767C23.1024 9.61334 23.1272 9.23435 23.0782 8.86138C23.0286 8.54128 22.9265 8.23157 22.7761 7.94471C22.5982 7.59861 22.4096 7.25817 22.2105 6.92388L22.1844 6.87804C21.9941 6.53855 21.7933 6.20506 21.5823 5.87804C21.4091 5.60473 21.192 5.36188 20.9396 5.15929C20.6413 4.93007 20.3007 4.76186 19.9374 4.66427C19.574 4.56668 19.195 4.54163 18.8219 4.59054C18.4303 4.64263 18.0761 4.79888 17.7053 4.99575C17.5718 5.0706 17.4215 5.11034 17.2684 5.11125C17.1154 5.11216 16.9646 5.07422 16.8303 5.00096C16.6992 4.92129 16.5906 4.8096 16.5146 4.6764C16.4386 4.54319 16.3978 4.39285 16.3959 4.2395C16.3803 3.82075 16.3396 3.43534 16.1875 3.07075C16.0437 2.7231 15.8328 2.40718 15.5668 2.14105C15.3009 1.87492 14.9851 1.66379 14.6376 1.51971C14.3355 1.39471 14.023 1.34575 13.6928 1.32388C13.3761 1.302 12.9896 1.302 12.5261 1.302H12.474ZM10.9605 2.96346C11.0407 2.93013 11.1625 2.89992 11.4136 2.88221C11.6709 2.8645 12.0042 2.8645 12.5 2.8645C12.9959 2.8645 13.3292 2.8645 13.5865 2.88221C13.8376 2.89992 13.9594 2.93013 14.0396 2.96346C14.3594 3.09575 14.6125 3.34888 14.7448 3.66867C14.7865 3.76867 14.8209 3.92596 14.8344 4.29784C14.8657 5.12284 15.2917 5.91763 16.048 6.35409C16.8042 6.79159 17.7053 6.76242 18.4355 6.377C18.7646 6.20304 18.9178 6.15409 19.0261 6.14054C19.3683 6.09532 19.7146 6.18787 19.9886 6.39784C20.0573 6.45096 20.1448 6.54159 20.2855 6.74992C20.4303 6.9645 20.5969 7.25304 20.8448 7.68221C21.0928 8.11138 21.2584 8.40096 21.3719 8.63221C21.4834 8.85825 21.5178 8.97909 21.5282 9.06554C21.5734 9.4078 21.4809 9.75401 21.2709 10.028C21.2042 10.1145 21.0855 10.2228 20.7709 10.4208C20.0709 10.8603 19.5959 11.627 19.5959 12.4999C19.5959 13.3728 20.0709 14.1395 20.7709 14.5791C21.0855 14.777 21.2042 14.8853 21.2709 14.9718C21.4813 15.2458 21.573 15.5916 21.5282 15.9343C21.5178 16.0208 21.4823 16.1426 21.3719 16.3676C21.2584 16.5999 21.0928 16.8885 20.8448 17.3176C20.5969 17.7468 20.4292 18.0353 20.2855 18.2499C20.1448 18.4583 20.0573 18.5489 19.9886 18.602C19.7146 18.812 19.3683 18.9045 19.0261 18.8593C18.9178 18.8458 18.7657 18.7968 18.4355 18.6228C17.7063 18.2374 16.8042 18.2083 16.048 18.6447C15.2917 19.0822 14.8657 19.877 14.8344 20.702C14.8209 21.0739 14.7865 21.2312 14.7448 21.3312C14.6794 21.4893 14.5834 21.633 14.4624 21.754C14.3414 21.875 14.1978 21.9709 14.0396 22.0364C13.9594 22.0697 13.8376 22.0999 13.5865 22.1176C13.3292 22.1353 12.9959 22.1353 12.5 22.1353C12.0042 22.1353 11.6709 22.1353 11.4136 22.1176C11.1625 22.0999 11.0407 22.0697 10.9605 22.0364C10.8023 21.9709 10.6587 21.875 10.5377 21.754C10.4167 21.633 10.3207 21.4893 10.2553 21.3312C10.2136 21.2312 10.1792 21.0739 10.1657 20.702C10.1344 19.877 9.70838 19.0822 8.95213 18.6458C8.19588 18.2083 7.29484 18.2374 6.56463 18.6228C6.23547 18.7968 6.08234 18.8458 5.97401 18.8593C5.63175 18.9045 5.28555 18.812 5.01151 18.602C4.94276 18.5489 4.85526 18.4583 4.71463 18.2499C4.51871 17.9449 4.33216 17.634 4.15526 17.3176C3.90734 16.8885 3.74172 16.5989 3.62818 16.3676C3.51672 16.1416 3.48234 16.0208 3.47193 15.9343C3.4267 15.592 3.51925 15.2458 3.72922 14.9718C3.79588 14.8853 3.91463 14.777 4.22922 14.5791C4.92922 14.1395 5.40422 13.3728 5.40422 12.4999C5.40422 11.627 4.92922 10.8603 4.22922 10.4208C3.91463 10.2228 3.79588 10.1145 3.72922 10.028C3.51925 9.75401 3.4267 9.4078 3.47193 9.06554C3.48234 8.97909 3.51776 8.85721 3.62818 8.63221C3.74172 8.39992 3.90734 8.11138 4.15526 7.68221C4.40318 7.25304 4.57088 6.9645 4.71463 6.74992C4.85526 6.54159 4.94276 6.45096 5.01151 6.39784C5.28555 6.18787 5.63175 6.09532 5.97401 6.14054C6.08234 6.15409 6.23443 6.20304 6.56463 6.377C7.2938 6.76242 8.19588 6.79159 8.95213 6.35409C9.70838 5.91763 10.1344 5.12284 10.1657 4.29784C10.1792 3.92596 10.2136 3.76867 10.2553 3.66867C10.3876 3.34888 10.6407 3.09575 10.9605 2.96346Z"/>
</mask>
<path fill-rule="evenodd" clip-rule="evenodd" d="M12.474 1.302C12.0105 1.302 11.624 1.302 11.3073 1.32284C10.9837 1.33631 10.6644 1.40319 10.3625 1.52075C10.0149 1.6646 9.69898 1.87552 9.43285 2.14147C9.16672 2.40742 8.95559 2.72319 8.81151 3.07075C8.66047 3.43534 8.61984 3.82075 8.60318 4.2395C8.60151 4.39265 8.56097 4.54286 8.48535 4.67605C8.40974 4.80924 8.30153 4.92104 8.17088 5.00096C8.03639 5.0744 7.88543 5.11245 7.73219 5.11154C7.57895 5.11063 7.42846 5.07079 7.29484 4.99575C6.92401 4.79992 6.56984 4.64263 6.17818 4.59054C5.8052 4.54148 5.42622 4.56637 5.06286 4.66378C4.6995 4.76118 4.35889 4.92921 4.06047 5.15825C3.80815 5.36125 3.591 5.60444 3.41776 5.87804C3.24068 6.14263 3.04693 6.477 2.81568 6.87804L2.78963 6.92388C2.55734 7.32492 2.36463 7.65929 2.22505 7.94471C2.07922 8.24263 1.96463 8.53638 1.92297 8.86138C1.82359 9.61449 2.02742 10.3762 2.48963 10.9791C2.73026 11.2926 3.0438 11.5208 3.39797 11.7437C3.53001 11.8217 3.64002 11.9321 3.71765 12.0644C3.79528 12.1967 3.83797 12.3466 3.84172 12.4999C3.83797 12.6533 3.79528 12.8031 3.71765 12.9354C3.64002 13.0677 3.53001 13.1781 3.39797 13.2562C3.0438 13.4791 2.7313 13.7072 2.48963 14.0208C2.26059 14.3192 2.09257 14.6598 1.99516 15.0231C1.89775 15.3865 1.87287 15.7655 1.92193 16.1385C1.96463 16.4635 2.07818 16.7572 2.22401 17.0551C2.36463 17.3405 2.55734 17.6749 2.78963 18.076L2.81568 18.1218C3.04693 18.5228 3.24068 18.8572 3.41776 19.1218C3.60213 19.3958 3.80005 19.6426 4.06047 19.8405C4.35881 20.0698 4.69939 20.238 5.06275 20.3356C5.42611 20.4332 5.80513 20.4582 6.17818 20.4093C6.56984 20.3572 6.92401 20.201 7.29484 20.0041C7.4283 19.9291 7.57861 19.8893 7.73167 19.8884C7.88473 19.8875 8.0355 19.9255 8.16984 19.9989C8.30122 20.0782 8.4101 20.1898 8.48614 20.3231C8.56217 20.4564 8.60282 20.6069 8.60422 20.7603C8.61984 21.1791 8.66047 21.5645 8.81255 21.9291C8.95639 22.2767 9.16731 22.5927 9.43327 22.8588C9.69922 23.1249 10.015 23.3361 10.3625 23.4801C10.6646 23.6051 10.9771 23.6541 11.3073 23.676C11.624 23.6978 12.0105 23.6978 12.474 23.6978H12.5261C12.9896 23.6978 13.3761 23.6978 13.6928 23.677C14.024 23.6541 14.3355 23.6051 14.6376 23.4791C14.9852 23.3352 15.3011 23.1243 15.5673 22.8584C15.8334 22.5924 16.0445 22.2766 16.1886 21.9291C16.3396 21.5645 16.3803 21.1791 16.3969 20.7603C16.3984 20.607 16.4389 20.4566 16.5145 20.3232C16.5901 20.1898 16.6984 20.0779 16.8292 19.9978C16.9638 19.9246 17.1148 19.8867 17.268 19.8878C17.4213 19.8889 17.5717 19.9289 17.7053 20.0041C18.0761 20.1999 18.4303 20.3572 18.8219 20.4083C19.575 20.5076 20.3368 20.3038 20.9396 19.8416C21.2 19.6416 21.398 19.3958 21.5823 19.1218C21.7594 18.8572 21.9532 18.5228 22.1844 18.1218L22.2105 18.076C22.4428 17.6749 22.6355 17.3405 22.775 17.0551C22.9209 16.7572 23.0355 16.4624 23.0771 16.1385C23.1765 15.3853 22.9727 14.6236 22.5105 14.0208C22.2698 13.7072 21.9563 13.4791 21.6021 13.2562C21.4701 13.1781 21.3601 13.0677 21.2825 12.9354C21.2048 12.8031 21.1621 12.6533 21.1584 12.4999C21.1584 12.2103 21.3167 11.9228 21.6021 11.7437C21.9563 11.5208 22.2688 11.2926 22.5105 10.9791C22.7395 10.6807 22.9075 10.3401 23.0049 9.9767C23.1024 9.61334 23.1272 9.23435 23.0782 8.86138C23.0286 8.54128 22.9265 8.23157 22.7761 7.94471C22.5982 7.59861 22.4096 7.25817 22.2105 6.92388L22.1844 6.87804C21.9941 6.53855 21.7933 6.20506 21.5823 5.87804C21.4091 5.60473 21.192 5.36188 20.9396 5.15929C20.6413 4.93007 20.3007 4.76186 19.9374 4.66427C19.574 4.56668 19.195 4.54163 18.8219 4.59054C18.4303 4.64263 18.0761 4.79888 17.7053 4.99575C17.5718 5.0706 17.4215 5.11034 17.2684 5.11125C17.1154 5.11216 16.9646 5.07422 16.8303 5.00096C16.6992 4.92129 16.5906 4.8096 16.5146 4.6764C16.4386 4.54319 16.3978 4.39285 16.3959 4.2395C16.3803 3.82075 16.3396 3.43534 16.1875 3.07075C16.0437 2.7231 15.8328 2.40718 15.5668 2.14105C15.3009 1.87492 14.9851 1.66379 14.6376 1.51971C14.3355 1.39471 14.023 1.34575 13.6928 1.32388C13.3761 1.302 12.9896 1.302 12.5261 1.302H12.474ZM10.9605 2.96346C11.0407 2.93013 11.1625 2.89992 11.4136 2.88221C11.6709 2.8645 12.0042 2.8645 12.5 2.8645C12.9959 2.8645 13.3292 2.8645 13.5865 2.88221C13.8376 2.89992 13.9594 2.93013 14.0396 2.96346C14.3594 3.09575 14.6125 3.34888 14.7448 3.66867C14.7865 3.76867 14.8209 3.92596 14.8344 4.29784C14.8657 5.12284 15.2917 5.91763 16.048 6.35409C16.8042 6.79159 17.7053 6.76242 18.4355 6.377C18.7646 6.20304 18.9178 6.15409 19.0261 6.14054C19.3683 6.09532 19.7146 6.18787 19.9886 6.39784C20.0573 6.45096 20.1448 6.54159 20.2855 6.74992C20.4303 6.9645 20.5969 7.25304 20.8448 7.68221C21.0928 8.11138 21.2584 8.40096 21.3719 8.63221C21.4834 8.85825 21.5178 8.97909 21.5282 9.06554C21.5734 9.4078 21.4809 9.75401 21.2709 10.028C21.2042 10.1145 21.0855 10.2228 20.7709 10.4208C20.0709 10.8603 19.5959 11.627 19.5959 12.4999C19.5959 13.3728 20.0709 14.1395 20.7709 14.5791C21.0855 14.777 21.2042 14.8853 21.2709 14.9718C21.4813 15.2458 21.573 15.5916 21.5282 15.9343C21.5178 16.0208 21.4823 16.1426 21.3719 16.3676C21.2584 16.5999 21.0928 16.8885 20.8448 17.3176C20.5969 17.7468 20.4292 18.0353 20.2855 18.2499C20.1448 18.4583 20.0573 18.5489 19.9886 18.602C19.7146 18.812 19.3683 18.9045 19.0261 18.8593C18.9178 18.8458 18.7657 18.7968 18.4355 18.6228C17.7063 18.2374 16.8042 18.2083 16.048 18.6447C15.2917 19.0822 14.8657 19.877 14.8344 20.702C14.8209 21.0739 14.7865 21.2312 14.7448 21.3312C14.6794 21.4893 14.5834 21.633 14.4624 21.754C14.3414 21.875 14.1978 21.9709 14.0396 22.0364C13.9594 22.0697 13.8376 22.0999 13.5865 22.1176C13.3292 22.1353 12.9959 22.1353 12.5 22.1353C12.0042 22.1353 11.6709 22.1353 11.4136 22.1176C11.1625 22.0999 11.0407 22.0697 10.9605 22.0364C10.8023 21.9709 10.6587 21.875 10.5377 21.754C10.4167 21.633 10.3207 21.4893 10.2553 21.3312C10.2136 21.2312 10.1792 21.0739 10.1657 20.702C10.1344 19.877 9.70838 19.0822 8.95213 18.6458C8.19588 18.2083 7.29484 18.2374 6.56463 18.6228C6.23547 18.7968 6.08234 18.8458 5.97401 18.8593C5.63175 18.9045 5.28555 18.812 5.01151 18.602C4.94276 18.5489 4.85526 18.4583 4.71463 18.2499C4.51871 17.9449 4.33216 17.634 4.15526 17.3176C3.90734 16.8885 3.74172 16.5989 3.62818 16.3676C3.51672 16.1416 3.48234 16.0208 3.47193 15.9343C3.4267 15.592 3.51925 15.2458 3.72922 14.9718C3.79588 14.8853 3.91463 14.777 4.22922 14.5791C4.92922 14.1395 5.40422 13.3728 5.40422 12.4999C5.40422 11.627 4.92922 10.8603 4.22922 10.4208C3.91463 10.2228 3.79588 10.1145 3.72922 10.028C3.51925 9.75401 3.4267 9.4078 3.47193 9.06554C3.48234 8.97909 3.51776 8.85721 3.62818 8.63221C3.74172 8.39992 3.90734 8.11138 4.15526 7.68221C4.40318 7.25304 4.57088 6.9645 4.71463 6.74992C4.85526 6.54159 4.94276 6.45096 5.01151 6.39784C5.28555 6.18787 5.63175 6.09532 5.97401 6.14054C6.08234 6.15409 6.23443 6.20304 6.56463 6.377C7.2938 6.76242 8.19588 6.79159 8.95213 6.35409C9.70838 5.91763 10.1344 5.12284 10.1657 4.29784C10.1792 3.92596 10.2136 3.76867 10.2553 3.66867C10.3876 3.34888 10.6407 3.09575 10.9605 2.96346Z" fill="black"/>
<path fill-rule="evenodd" clip-rule="evenodd" d="M12.474 1.302C12.0105 1.302 11.624 1.302 11.3073 1.32284C10.9837 1.33631 10.6644 1.40319 10.3625 1.52075C10.0149 1.6646 9.69898 1.87552 9.43285 2.14147C9.16672 2.40742 8.95559 2.72319 8.81151 3.07075C8.66047 3.43534 8.61984 3.82075 8.60318 4.2395C8.60151 4.39265 8.56097 4.54286 8.48535 4.67605C8.40974 4.80924 8.30153 4.92104 8.17088 5.00096C8.03639 5.0744 7.88543 5.11245 7.73219 5.11154C7.57895 5.11063 7.42846 5.07079 7.29484 4.99575C6.92401 4.79992 6.56984 4.64263 6.17818 4.59054C5.8052 4.54148 5.42622 4.56637 5.06286 4.66378C4.6995 4.76118 4.35889 4.92921 4.06047 5.15825C3.80815 5.36125 3.591 5.60444 3.41776 5.87804C3.24068 6.14263 3.04693 6.477 2.81568 6.87804L2.78963 6.92388C2.55734 7.32492 2.36463 7.65929 2.22505 7.94471C2.07922 8.24263 1.96463 8.53638 1.92297 8.86138C1.82359 9.61449 2.02742 10.3762 2.48963 10.9791C2.73026 11.2926 3.0438 11.5208 3.39797 11.7437C3.53001 11.8217 3.64002 11.9321 3.71765 12.0644C3.79528 12.1967 3.83797 12.3466 3.84172 12.4999C3.83797 12.6533 3.79528 12.8031 3.71765 12.9354C3.64002 13.0677 3.53001 13.1781 3.39797 13.2562C3.0438 13.4791 2.7313 13.7072 2.48963 14.0208C2.26059 14.3192 2.09257 14.6598 1.99516 15.0231C1.89775 15.3865 1.87287 15.7655 1.92193 16.1385C1.96463 16.4635 2.07818 16.7572 2.22401 17.0551C2.36463 17.3405 2.55734 17.6749 2.78963 18.076L2.81568 18.1218C3.04693 18.5228 3.24068 18.8572 3.41776 19.1218C3.60213 19.3958 3.80005 19.6426 4.06047 19.8405C4.35881 20.0698 4.69939 20.238 5.06275 20.3356C5.42611 20.4332 5.80513 20.4582 6.17818 20.4093C6.56984 20.3572 6.92401 20.201 7.29484 20.0041C7.4283 19.9291 7.57861 19.8893 7.73167 19.8884C7.88473 19.8875 8.0355 19.9255 8.16984 19.9989C8.30122 20.0782 8.4101 20.1898 8.48614 20.3231C8.56217 20.4564 8.60282 20.6069 8.60422 20.7603C8.61984 21.1791 8.66047 21.5645 8.81255 21.9291C8.95639 22.2767 9.16731 22.5927 9.43327 22.8588C9.69922 23.1249 10.015 23.3361 10.3625 23.4801C10.6646 23.6051 10.9771 23.6541 11.3073 23.676C11.624 23.6978 12.0105 23.6978 12.474 23.6978H12.5261C12.9896 23.6978 13.3761 23.6978 13.6928 23.677C14.024 23.6541 14.3355 23.6051 14.6376 23.4791C14.9852 23.3352 15.3011 23.1243 15.5673 22.8584C15.8334 22.5924 16.0445 22.2766 16.1886 21.9291C16.3396 21.5645 16.3803 21.1791 16.3969 20.7603C16.3984 20.607 16.4389 20.4566 16.5145 20.3232C16.5901 20.1898 16.6984 20.0779 16.8292 19.9978C16.9638 19.9246 17.1148 19.8867 17.268 19.8878C17.4213 19.8889 17.5717 19.9289 17.7053 20.0041C18.0761 20.1999 18.4303 20.3572 18.8219 20.4083C19.575 20.5076 20.3368 20.3038 20.9396 19.8416C21.2 19.6416 21.398 19.3958 21.5823 19.1218C21.7594 18.8572 21.9532 18.5228 22.1844 18.1218L22.2105 18.076C22.4428 17.6749 22.6355 17.3405 22.775 17.0551C22.9209 16.7572 23.0355 16.4624 23.0771 16.1385C23.1765 15.3853 22.9727 14.6236 22.5105 14.0208C22.2698 13.7072 21.9563 13.4791 21.6021 13.2562C21.4701 13.1781 21.3601 13.0677 21.2825 12.9354C21.2048 12.8031 21.1621 12.6533 21.1584 12.4999C21.1584 12.2103 21.3167 11.9228 21.6021 11.7437C21.9563 11.5208 22.2688 11.2926 22.5105 10.9791C22.7395 10.6807 22.9075 10.3401 23.0049 9.9767C23.1024 9.61334 23.1272 9.23435 23.0782 8.86138C23.0286 8.54128 22.9265 8.23157 22.7761 7.94471C22.5982 7.59861 22.4096 7.25817 22.2105 6.92388L22.1844 6.87804C21.9941 6.53855 21.7933 6.20506 21.5823 5.87804C21.4091 5.60473 21.192 5.36188 20.9396 5.15929C20.6413 4.93007 20.3007 4.76186 19.9374 4.66427C19.574 4.56668 19.195 4.54163 18.8219 4.59054C18.4303 4.64263 18.0761 4.79888 17.7053 4.99575C17.5718 5.0706 17.4215 5.11034 17.2684 5.11125C17.1154 5.11216 16.9646 5.07422 16.8303 5.00096C16.6992 4.92129 16.5906 4.8096 16.5146 4.6764C16.4386 4.54319 16.3978 4.39285 16.3959 4.2395C16.3803 3.82075 16.3396 3.43534 16.1875 3.07075C16.0437 2.7231 15.8328 2.40718 15.5668 2.14105C15.3009 1.87492 14.9851 1.66379 14.6376 1.51971C14.3355 1.39471 14.023 1.34575 13.6928 1.32388C13.3761 1.302 12.9896 1.302 12.5261 1.302H12.474ZM10.9605 2.96346C11.0407 2.93013 11.1625 2.89992 11.4136 2.88221C11.6709 2.8645 12.0042 2.8645 12.5 2.8645C12.9959 2.8645 13.3292 2.8645 13.5865 2.88221C13.8376 2.89992 13.9594 2.93013 14.0396 2.96346C14.3594 3.09575 14.6125 3.34888 14.7448 3.66867C14.7865 3.76867 14.8209 3.92596 14.8344 4.29784C14.8657 5.12284 15.2917 5.91763 16.048 6.35409C16.8042 6.79159 17.7053 6.76242 18.4355 6.377C18.7646 6.20304 18.9178 6.15409 19.0261 6.14054C19.3683 6.09532 19.7146 6.18787 19.9886 6.39784C20.0573 6.45096 20.1448 6.54159 20.2855 6.74992C20.4303 6.9645 20.5969 7.25304 20.8448 7.68221C21.0928 8.11138 21.2584 8.40096 21.3719 8.63221C21.4834 8.85825 21.5178 8.97909 21.5282 9.06554C21.5734 9.4078 21.4809 9.75401 21.2709 10.028C21.2042 10.1145 21.0855 10.2228 20.7709 10.4208C20.0709 10.8603 19.5959 11.627 19.5959 12.4999C19.5959 13.3728 20.0709 14.1395 20.7709 14.5791C21.0855 14.777 21.2042 14.8853 21.2709 14.9718C21.4813 15.2458 21.573 15.5916 21.5282 15.9343C21.5178 16.0208 21.4823 16.1426 21.3719 16.3676C21.2584 16.5999 21.0928 16.8885 20.8448 17.3176C20.5969 17.7468 20.4292 18.0353 20.2855 18.2499C20.1448 18.4583 20.0573 18.5489 19.9886 18.602C19.7146 18.812 19.3683 18.9045 19.0261 18.8593C18.9178 18.8458 18.7657 18.7968 18.4355 18.6228C17.7063 18.2374 16.8042 18.2083 16.048 18.6447C15.2917 19.0822 14.8657 19.877 14.8344 20.702C14.8209 21.0739 14.7865 21.2312 14.7448 21.3312C14.6794 21.4893 14.5834 21.633 14.4624 21.754C14.3414 21.875 14.1978 21.9709 14.0396 22.0364C13.9594 22.0697 13.8376 22.0999 13.5865 22.1176C13.3292 22.1353 12.9959 22.1353 12.5 22.1353C12.0042 22.1353 11.6709 22.1353 11.4136 22.1176C11.1625 22.0999 11.0407 22.0697 10.9605 22.0364C10.8023 21.9709 10.6587 21.875 10.5377 21.754C10.4167 21.633 10.3207 21.4893 10.2553 21.3312C10.2136 21.2312 10.1792 21.0739 10.1657 20.702C10.1344 19.877 9.70838 19.0822 8.95213 18.6458C8.19588 18.2083 7.29484 18.2374 6.56463 18.6228C6.23547 18.7968 6.08234 18.8458 5.97401 18.8593C5.63175 18.9045 5.28555 18.812 5.01151 18.602C4.94276 18.5489 4.85526 18.4583 4.71463 18.2499C4.51871 17.9449 4.33216 17.634 4.15526 17.3176C3.90734 16.8885 3.74172 16.5989 3.62818 16.3676C3.51672 16.1416 3.48234 16.0208 3.47193 15.9343C3.4267 15.592 3.51925 15.2458 3.72922 14.9718C3.79588 14.8853 3.91463 14.777 4.22922 14.5791C4.92922 14.1395 5.40422 13.3728 5.40422 12.4999C5.40422 11.627 4.92922 10.8603 4.22922 10.4208C3.91463 10.2228 3.79588 10.1145 3.72922 10.028C3.51925 9.75401 3.4267 9.4078 3.47193 9.06554C3.48234 8.97909 3.51776 8.85721 3.62818 8.63221C3.74172 8.39992 3.90734 8.11138 4.15526 7.68221C4.40318 7.25304 4.57088 6.9645 4.71463 6.74992C4.85526 6.54159 4.94276 6.45096 5.01151 6.39784C5.28555 6.18787 5.63175 6.09532 5.97401 6.14054C6.08234 6.15409 6.23443 6.20304 6.56463 6.377C7.2938 6.76242 8.19588 6.79159 8.95213 6.35409C9.70838 5.91763 10.1344 5.12284 10.1657 4.29784C10.1792 3.92596 10.2136 3.76867 10.2553 3.66867C10.3876 3.34888 10.6407 3.09575 10.9605 2.96346Z" stroke="black" stroke-width="0.3" mask="url(#path-2-outside-1_2008_380)"/>
</g>
</svg>
