<svg width="44" height="44" viewBox="0 0 44 44" fill="none" xmlns="http://www.w3.org/2000/svg">
<rect width="44" height="44" rx="22" fill="#31353F"/>
<g clip-path="url(#clip0_284_993)">
<path d="M14.087 26.2105C14.2188 26.088 14.4016 26.0168 14.5972 26.0168H31.2986C31.9236 26.0168 32.2382 26.7202 31.796 27.1312L28.9175 29.8064C28.7857 29.9289 28.6029 30.0001 28.4073 30.0001H11.7017C11.0767 30.0001 10.762 29.2967 11.2042 28.8857L14.0827 26.2105H14.087Z" fill="#1ECB4F"/>
<path d="M14.087 14.1936C14.223 14.0711 14.4059 14 14.5972 14H31.2986C31.9236 14 32.2382 14.7034 31.796 15.1143L28.9175 17.7896C28.7857 17.9121 28.6029 17.9832 28.4073 17.9832H11.7017C11.0767 17.9832 10.762 17.2798 11.2042 16.8689L14.087 14.1936Z" fill="#1ECB4F"/>
<path d="M28.9133 20.1645C28.7815 20.042 28.5986 19.9708 28.403 19.9708H11.7017C11.0767 19.9708 10.762 20.6742 11.2042 21.0852L14.0827 23.7604C14.2145 23.8829 14.3974 23.954 14.593 23.954H31.2943C31.9193 23.954 32.234 23.2506 31.7918 22.8397L28.9133 20.1645Z" fill="#1ECB4F"/>
</g>
<defs>
<clipPath id="clip0_284_993">
<rect width="21" height="16" fill="white" transform="translate(11 14)"/>
</clipPath>
</defs>
</svg>
