<svg width="25" height="22" viewBox="0 0 25 22" fill="none" xmlns="http://www.w3.org/2000/svg">
<g opacity="0.6">
<path d="M13.7021 6.79565C14.2281 6.79565 14.6629 7.23062 14.6631 7.75659C14.6631 8.28268 14.2282 8.71753 13.7021 8.71753H7.21582C6.68985 8.71738 6.25488 8.28259 6.25488 7.75659C6.25503 7.23071 6.68994 6.7958 7.21582 6.79565H13.7021Z" fill="black" stroke="black" stroke-width="0.3"/>
<path d="M22.356 7.82251C23.5051 7.85735 24.3929 8.76524 24.3931 9.88599V12.1135C24.393 13.2328 23.5065 14.1421 22.3882 14.177H20.2329C18.5295 14.177 17.0747 12.9135 16.937 11.2737L16.9253 11.0969C16.8905 10.2163 17.23 9.36849 17.8677 8.74146C18.4381 8.14999 19.2447 7.82251 20.0923 7.82251H22.356ZM20.103 9.74438C19.7624 9.74438 19.456 9.87022 19.2378 10.0979L19.2339 10.1028C18.9525 10.3746 18.8189 10.7399 18.8569 11.1028L18.8579 11.1077C18.9052 11.7298 19.5192 12.2551 20.2329 12.2551H22.3511C22.4014 12.2551 22.4712 12.2003 22.4712 12.1135V9.88599C22.471 9.83531 22.4422 9.78502 22.3813 9.76001L22.3091 9.74438H20.103Z" fill="black" stroke="black" stroke-width="0.3"/>
<path d="M16.9463 0.849609C17.2076 0.849619 17.5482 0.862222 17.9023 0.916992L17.9033 0.916016C19.5326 1.1038 20.8873 1.81757 21.834 2.91992C22.7802 4.02181 23.3124 5.50344 23.3125 7.21582V8.78418C23.3123 9.31002 22.8774 9.74403 22.3516 9.74414H20.1025C19.7619 9.74418 19.4565 9.87094 19.2383 10.0986L19.2363 10.1006L19.1299 9.99414L19.2354 10.1006L19.2227 10.1133C18.9876 10.34 18.8617 10.6406 18.8535 10.959L18.8574 11.0967C18.9046 11.7189 19.5186 12.2441 20.2324 12.2441H22.3516C22.8775 12.2443 23.3123 12.6792 23.3125 13.2051V14.7734C23.3124 16.6723 22.6755 18.2694 21.5547 19.3916C20.4338 20.5137 18.8398 21.1503 16.9463 21.1504H7.21582C5.32217 21.1503 3.72828 20.5134 2.60742 19.3926C1.48657 18.2717 0.849698 16.6778 0.849609 14.7842V7.21582C0.849691 5.51991 1.37366 4.04933 2.31152 2.9502C3.24986 1.8506 4.59591 1.13104 6.22461 0.926758V0.927734C6.52104 0.883946 6.86227 0.849634 7.21582 0.849609H16.9463ZM6.84473 2.78613L6.47852 2.82422C5.32223 2.97138 4.39884 3.46407 3.76367 4.21582C3.1281 4.96813 2.77156 5.99127 2.77148 7.21582V14.7842C2.77157 16.1456 3.21218 17.2532 3.97949 18.0205C4.74681 18.7878 5.85437 19.2284 7.21582 19.2285H16.9463C18.3078 19.2284 19.4163 18.7878 20.1836 18.0205C20.9506 17.2532 21.3905 16.1454 21.3906 14.7842V14.1768H20.2324C18.5283 14.1768 17.0732 12.9122 16.9365 11.2715V11.2705C16.8468 10.3396 17.1885 9.40988 17.8691 8.75195C18.4597 8.15156 19.2536 7.82328 20.1025 7.82324H21.3906V7.21582C21.3905 5.98063 21.0291 4.94926 20.3857 4.19434C19.7428 3.44001 18.8084 2.95012 17.6416 2.81348L17.6348 2.8125C17.3893 2.77159 17.1739 2.77148 16.9463 2.77148H7.21582C7.09031 2.7715 6.96711 2.77692 6.84473 2.78613Z" fill="black" stroke="black" stroke-width="0.3"/>
</g>
</svg>
