<svg width="54" height="50" viewBox="0 0 54 50" fill="none" xmlns="http://www.w3.org/2000/svg">
<path d="M27 14.5833C27 12.3732 26.0518 10.2536 24.364 8.69078C22.6761 7.12797 20.3869 6.25 18 6.25H4.5V37.5H20.25C22.0402 37.5 23.7571 38.1585 25.023 39.3306C26.2888 40.5027 27 42.0924 27 43.75M27 14.5833V43.75M27 14.5833C27 12.3732 27.9482 10.2536 29.636 8.69078C31.3239 7.12797 33.6131 6.25 36 6.25H49.5V37.5H33.75C31.9598 37.5 30.2429 38.1585 28.977 39.3306C27.7112 40.5027 27 42.0924 27 43.75" stroke="#B3B3B3" stroke-width="4" stroke-linecap="round" stroke-linejoin="round"/>
</svg>
