<svg width="48" height="50" viewBox="0 0 48 50" fill="none" xmlns="http://www.w3.org/2000/svg">
<path d="M42 20.8333C42 35.4167 24 47.9167 24 47.9167C24 47.9167 6 35.4167 6 20.8333C6 15.8605 7.89642 11.0914 11.2721 7.57508C14.6477 4.05878 19.2261 2.08334 24 2.08334C28.7739 2.08334 33.3523 4.05878 36.7279 7.57508C40.1036 11.0914 42 15.8605 42 20.8333Z" stroke="#B3B3B3" stroke-width="4" stroke-linecap="round" stroke-linejoin="round"/>
<path d="M24 27.0833C27.3137 27.0833 30 24.2851 30 20.8333C30 17.3816 27.3137 14.5833 24 14.5833C20.6863 14.5833 18 17.3816 18 20.8333C18 24.2851 20.6863 27.0833 24 27.0833Z" stroke="#B3B3B3" stroke-width="4" stroke-linecap="round" stroke-linejoin="round"/>
</svg>
