<svg width="22" height="22" viewBox="0 0 22 22" fill="none" xmlns="http://www.w3.org/2000/svg">
<path opacity="0.6" d="M11.041 0.349609C13.9312 0.34985 16.2917 2.68194 16.292 5.54395C16.292 7.54863 15.1336 9.27789 13.4561 10.1455C17.8434 11.0049 21.1504 14.1047 21.1504 17.8398C21.1503 18.7809 20.5835 19.4856 19.7529 20.0068C18.924 20.527 17.8102 20.8796 16.6582 21.1211C14.3518 21.6045 11.8393 21.6504 11 21.6504C8.49658 21.6504 6.15933 21.3889 4.39746 20.8926C3.24649 20.5689 2.36402 20.157 1.7666 19.6523C1.16505 19.1441 0.849707 18.5383 0.849609 17.8398C0.849609 14.0908 4.19203 10.9779 8.61523 10.1396C6.94239 9.27335 5.78906 7.54229 5.78906 5.54395C5.78932 2.68179 8.15059 0.349609 11.041 0.349609ZM11 11.7217C8.6914 11.7217 6.60365 12.4172 5.09668 13.5332C3.58958 14.6494 2.6709 16.1785 2.6709 17.8496C2.67091 17.9329 2.70646 18.0305 2.79688 18.1416C2.88762 18.253 3.02829 18.3706 3.22168 18.4902C3.60892 18.7298 4.18537 18.9633 4.92578 19.167C6.40454 19.5737 8.51025 19.8555 11 19.8555C13.4897 19.8555 15.5955 19.5737 17.0742 19.167C17.8146 18.9633 18.3911 18.7298 18.7783 18.4902C18.9717 18.3706 19.1124 18.253 19.2031 18.1416C19.2935 18.0305 19.3291 17.9329 19.3291 17.8496C19.3291 16.1785 18.4104 14.6494 16.9033 13.5332C15.3963 12.4172 13.3086 11.7217 11 11.7217ZM11.041 2.1543C9.14473 2.1543 7.61061 3.673 7.61035 5.54395C7.61035 7.41511 9.14458 8.93457 11.041 8.93457C12.9372 8.93433 14.4707 7.41496 14.4707 5.54395C14.4704 3.67315 12.9371 2.15454 11.041 2.1543Z" fill="black" stroke="black" stroke-width="0.3"/>
</svg>
