<svg width="25" height="23" viewBox="0 0 25 23" fill="none" xmlns="http://www.w3.org/2000/svg">
<path d="M8.625 22.375H3.45833C2.0375 22.375 0.875 21.2875 0.875 19.9583V3.04167C0.875 1.7125 2.0375 0.625 3.45833 0.625H8.625C10.0458 0.625 11.2083 1.7125 11.2083 3.04167V19.9583C11.2083 21.2875 10.0458 22.375 8.625 22.375ZM16.375 22.375H21.5417C22.9625 22.375 24.125 21.2875 24.125 19.9583V13.9167C24.125 12.5875 22.9625 11.5 21.5417 11.5H16.375C14.9542 11.5 13.7917 12.5875 13.7917 13.9167V19.9583C13.7917 21.2875 14.9542 22.375 16.375 22.375ZM24.125 6.66667V3.04167C24.125 1.7125 22.9625 0.625 21.5417 0.625H16.375C14.9542 0.625 13.7917 1.7125 13.7917 3.04167V6.66667C13.7917 7.99583 14.9542 9.08333 16.375 9.08333H21.5417C22.9625 9.08333 24.125 7.99583 24.125 6.66667Z" fill="#9A9897"/>
</svg>
