<svg width="44" height="44" viewBox="0 0 44 44" fill="none" xmlns="http://www.w3.org/2000/svg">
<rect width="44" height="44" rx="22" fill="#31353F"/>
<path d="M18.117 24.6737L19.9743 25.5556C21.1625 26.119 22.5237 26.119 23.7234 25.5556L25.5807 24.6737C27.2419 23.8899 28.7761 26.021 27.6226 27.5153L23.6312 32.6961C22.6506 33.9699 21.0471 33.9699 20.055 32.6961L16.0752 27.5153C14.9101 26.021 16.4443 23.8899 18.117 24.6737Z" fill="#306AFF"/>
<path d="M17.8862 21.2933C17.5401 21.5628 17.5863 22.1262 17.9785 22.3344L20.6894 23.7674C21.3239 24.1103 22.3506 24.1103 22.9735 23.7674L25.6845 22.3344C26.0651 22.1262 26.1113 21.575 25.7767 21.2933L22.1891 18.4273C21.9815 18.2681 21.7046 18.2681 21.4969 18.4273L17.8862 21.2933Z" fill="#306AFF"/>
<path d="M28.6262 17.0923L23.8158 10.7234C23.7235 10.6009 23.6196 10.4907 23.5158 10.3805C23.2159 10.0743 22.7891 10.356 22.7891 10.7969V16.0635C22.7891 16.2595 22.8698 16.4432 23.0198 16.5534L27.8072 20.3748L28.0148 20.534C28.2224 20.6932 28.5108 20.6932 28.6839 20.4973C29.4914 19.5664 29.4799 18.2192 28.6262 17.0923Z" fill="#306AFF"/>
<path d="M15.0485 17.2027L19.8359 10.7358C19.9282 10.6133 20.0205 10.5031 20.1243 10.3928C20.4242 10.0866 20.851 10.3561 20.851 10.8093V16.1616C20.851 16.3576 20.7703 16.5291 20.6203 16.6515L15.856 20.5341L15.6599 20.6934C15.4523 20.8526 15.1639 20.8526 14.9793 20.6444C14.1949 19.7013 14.2064 18.354 15.0485 17.2027Z" fill="#306AFF"/>
</svg>
