<svg width="20" height="24" viewBox="0 0 20 24" fill="none" xmlns="http://www.w3.org/2000/svg">
<path d="M9.99992 12H18.1666M18.1666 12L14.6666 15.5M18.1666 12L14.6666 8.5M18.1666 5V3.83333C18.1666 3.21449 17.9208 2.621 17.4832 2.18342C17.0456 1.74583 16.4521 1.5 15.8333 1.5H4.16659C3.54775 1.5 2.95425 1.74583 2.51667 2.18342C2.07908 2.621 1.83325 3.21449 1.83325 3.83333V20.1667C1.83325 20.7855 2.07908 21.379 2.51667 21.8166C2.95425 22.2542 3.54775 22.5 4.16659 22.5H15.8333C16.4521 22.5 17.0456 22.2542 17.4832 21.8166C17.9208 21.379 18.1666 20.7855 18.1666 20.1667V19" stroke="#ECEAE7" stroke-width="1.8" stroke-linecap="round" stroke-linejoin="round"/>
</svg>
