<svg width="34" height="20" viewBox="0 0 34 20" fill="none" xmlns="http://www.w3.org/2000/svg">
<path d="M26.4888 9.10103C27.4674 13.9391 31.3158 15.4018 31.3158 15.4018H1C1 15.4018 6.05263 13.4819 6.05263 6.76073C6.05263 5.23324 7.11705 3.76785 9.01179 2.68772C10.9082 1.60758 13.48 1 16.1579 1C16.7255 1 17.2897 1.027 17.8421 1.08101M19.0716 18.1022C18.7758 18.3752 18.3509 18.6019 17.8395 18.7595C17.3281 18.9171 16.7482 19 16.1579 19C15.5676 19 14.9876 18.9171 14.4763 18.7595C13.9649 18.6019 13.54 18.3752 13.2442 18.1022M27.9474 6.40069C29.2874 6.40069 30.5726 6.11619 31.5201 5.60978C32.4677 5.10336 33 4.41652 33 3.70034C33 2.98417 32.4677 2.29733 31.5201 1.79091C30.5726 1.2845 29.2874 1 27.9474 1C26.6073 1 25.3222 1.2845 24.3746 1.79091C23.4271 2.29733 22.8947 2.98417 22.8947 3.70034C22.8947 4.41652 23.4271 5.10336 24.3746 5.60978C25.3222 6.11619 26.6073 6.40069 27.9474 6.40069Z" stroke="black" stroke-width="2" stroke-linecap="round" stroke-linejoin="round"/>
</svg>
